<svg xmlns="http://www.w3.org/2000/svg" viewBox="0 0 64 64">
  <!-- ハト探偵（タイトルのマスコット）の顔アップ -->
  <circle cx="32" cy="40" r="24" fill="#c3d3e8"/>
  <ellipse cx="32" cy="52" rx="15" ry="11" fill="#e9f0fa"/>
  <path d="M20 44 q12 -7 24 0 q-4 -6 -12 -6 t-12 6Z" fill="#35d0ba"/>
  <circle cx="23" cy="34" r="7.5" fill="#fff"/>
  <circle cx="23.5" cy="35" r="3.4" fill="#2e3a4d"/>
  <circle cx="24.8" cy="33.6" r="1.2" fill="#fff"/>
  <circle cx="41" cy="34" r="7.5" fill="#fff"/>
  <circle cx="41.5" cy="35" r="3.4" fill="#2e3a4d"/>
  <circle cx="42.8" cy="33.6" r="1.2" fill="#fff"/>
  <path d="M26 41 l6 -2.5 6 2.5 -6 4.5Z" fill="#f5a623"/>
  <path d="M10 21 Q10 4 32 4 Q54 4 54 21 L54 24 Q32 17 10 24 Z" fill="#c99b66"/>
  <path d="M10 22 Q32 15 54 22 L54 26 Q32 19 10 26 Z" fill="#96683a"/>
  <ellipse cx="8.5" cy="23" rx="5.5" ry="3" fill="#b8875a" transform="rotate(-16 8.5 23)"/>
  <ellipse cx="55.5" cy="23" rx="5.5" ry="3" fill="#b8875a" transform="rotate(16 55.5 23)"/>
  <circle cx="32" cy="4.5" r="2.5" fill="#96683a"/>
</svg>
